<svg width="34" height="34" viewBox="0 0 34 34" fill="none" xmlns="http://www.w3.org/2000/svg">
<g clip-path="url(#clip0_12_70)">
<path d="M7.10878 17C7.10878 15.9205 7.29295 14.8849 7.61878 13.9145L1.89828 9.63617C0.748936 11.9205 0.152082 14.4428 0.155779 17C0.155779 19.6463 0.781946 22.1425 1.89545 24.3582L7.61311 20.0728C7.27972 19.0826 7.10939 18.0448 7.10878 17Z" fill="#FBBC05"/>
<path d="M17.1559 7.17824C19.5501 7.17824 21.7134 8.0084 23.4134 9.3684L28.3589 4.53332C25.3457 1.9649 21.4824 0.378235 17.1559 0.378235C10.4381 0.378235 4.66377 4.13948 1.89844 9.63615L7.62177 13.9145C8.93927 9.99599 12.6963 7.17824 17.1559 7.17824Z" fill="#EA4335"/>
<path d="M17.1559 26.8218C12.6949 26.8218 8.93785 24.004 7.61894 20.0855L1.89844 24.3638C4.66235 29.8605 10.4367 33.6218 17.1559 33.6218C21.3011 33.6218 25.2593 32.181 28.2314 29.4794L22.7999 25.3683C21.2685 26.3132 19.339 26.8218 17.1545 26.8218" fill="#34A853"/>
<path d="M33.3822 17C33.3822 16.0182 33.2264 14.96 32.9955 13.9782H17.1543V20.4H26.272C25.8172 22.5902 24.5762 24.2732 22.8011 25.3682L28.2312 29.4794C31.3521 26.6432 33.3822 22.4187 33.3822 17Z" fill="#4285F4"/>
</g>
<defs>
<clipPath id="clip0_12_70">
<rect width="34" height="34" fill="white"/>
</clipPath>
</defs>
</svg>
