<svg width="1920" height="1000" viewBox="0 0 1920 1000" fill="none" xmlns="http://www.w3.org/2000/svg">
<mask id="mask0_12_29" style="mask-type:alpha" maskUnits="userSpaceOnUse" x="0" y="0" width="1920" height="1000">
<path d="M1920 909C1902.33 938 1813.8 996.7 1601 999.5C1388.2 1002.3 1332.5 935.5 1048 909H0V0H1920V909Z" fill="#0D60AD"/>
</mask>
<g mask="url(#mask0_12_29)">
<rect x="1257" y="481" width="507" height="544" rx="26" fill="url(#paint0_linear_12_29)"/>
<g filter="url(#filter0_d_12_29)">
<circle cx="1781.5" cy="626.5" r="385.5" fill="url(#paint1_linear_12_29)"/>
</g>
<path d="M1673 828C1526 738.5 1273.33 905.167 1072.5 960L1800.5 1134.5L2043.5 893C1991.33 899.167 1820.81 917.991 1673 828Z" fill="url(#paint2_linear_12_29)"/>
<path d="M1521.8 131.246C1531.32 132.473 1536.81 142.702 1532.57 151.316L1466.09 286.335C1461.06 296.554 1446.58 296.808 1441.19 286.772L1358.41 132.525C1353.02 122.489 1361.23 110.564 1372.53 112.019L1521.8 131.246Z" fill="url(#paint3_linear_12_29)" fill-opacity="0.46"/>
<path d="M831.456 773.604C831.067 779.707 824.836 783.654 819.152 781.397L740.272 750.071C733.438 747.357 732.567 738.037 738.779 734.103L823.053 680.728C829.265 676.793 837.317 681.565 836.85 688.903L831.456 773.604Z" fill="url(#paint4_linear_12_29)" fill-opacity="0.46"/>
<path d="M211.403 837.552C215.619 839.298 217.862 843.922 216.622 848.313L190.021 942.536C187.773 950.5 176.873 951.464 173.262 944.018L109.402 812.345C105.791 804.899 113.297 796.937 120.943 800.102L211.403 837.552Z" fill="url(#paint5_linear_12_29)" fill-opacity="0.46"/>
</g>
<defs>
<filter id="filter0_d_12_29" x="1300.8" y="172.8" width="907.4" height="907.4" filterUnits="userSpaceOnUse" color-interpolation-filters="sRGB">
<feFlood flood-opacity="0" result="BackgroundImageFix"/>
<feColorMatrix in="SourceAlpha" type="matrix" values="0 0 0 0 0 0 0 0 0 0 0 0 0 0 0 0 0 0 127 0" result="hardAlpha"/>
<feOffset dx="-27"/>
<feGaussianBlur stdDeviation="34.1"/>
<feComposite in2="hardAlpha" operator="out"/>
<feColorMatrix type="matrix" values="0 0 0 0 0.0509804 0 0 0 0 0.376471 0 0 0 0 0.678431 0 0 0 0.09 0"/>
<feBlend mode="normal" in2="BackgroundImageFix" result="effect1_dropShadow_12_29"/>
<feBlend mode="normal" in="SourceGraphic" in2="effect1_dropShadow_12_29" result="shape"/>
</filter>
<linearGradient id="paint0_linear_12_29" x1="1257" y1="629" x2="1764" y2="629" gradientUnits="userSpaceOnUse">
<stop stop-color="#60CF1B"/>
<stop offset="0.573296" stop-color="#4F9ADF"/>
</linearGradient>
<linearGradient id="paint1_linear_12_29" x1="1855" y1="241" x2="1662.5" y2="1012" gradientUnits="userSpaceOnUse">
<stop stop-color="#39B8DB"/>
<stop offset="1" stop-color="#267BCA"/>
</linearGradient>
<linearGradient id="paint2_linear_12_29" x1="1558" y1="802.083" x2="1558" y2="1134.5" gradientUnits="userSpaceOnUse">
<stop stop-color="#7BC5D9" stop-opacity="0.56"/>
<stop offset="0.642464" stop-color="#0D60AD" stop-opacity="0"/>
</linearGradient>
<linearGradient id="paint3_linear_12_29" x1="1367.94" y1="123.348" x2="1460.94" y2="291.348" gradientUnits="userSpaceOnUse">
<stop stop-color="#FBE70A"/>
<stop offset="1" stop-color="#EFFCFF"/>
</linearGradient>
<linearGradient id="paint4_linear_12_29" x1="830.166" y1="684.958" x2="735.493" y2="746.687" gradientUnits="userSpaceOnUse">
<stop stop-color="#5DCC20"/>
<stop offset="1" stop-color="#EFFCFF"/>
</linearGradient>
<linearGradient id="paint5_linear_12_29" x1="113.928" y1="806.018" x2="187.603" y2="950.335" gradientUnits="userSpaceOnUse">
<stop stop-color="#39B8DB"/>
<stop offset="1" stop-color="#EFFCFF"/>
</linearGradient>
</defs>
</svg>